<?xml version="1.0" standalone="no"?>
<!DOCTYPE svg PUBLIC "-//W3C//DTD SVG 20010904//EN"
 "http://www.w3.org/TR/2001/REC-SVG-20010904/DTD/svg10.dtd">
<svg version="1.0" xmlns="http://www.w3.org/2000/svg"
 width="300.000000pt" height="153.000000pt" viewBox="0 0 300.000000 153.000000"
 preserveAspectRatio="xMidYMid meet">
<metadata>
Created by potrace 1.10, written by Peter Selinger 2001-2011
</metadata>
<g transform="translate(0.000000,153.000000) scale(0.100000,-0.100000)"
fill="#000000" stroke="none">
<path d="M1025 1491 c5 -26 3 -29 -25 -35 -20 -3 -29 -10 -24 -17 3 -6 19 -9
35 -5 24 5 28 2 31 -21 2 -15 9 -28 16 -31 10 -3 12 4 7 31 -6 33 -5 36 19 39
38 4 35 24 -3 20 -27 -3 -31 -1 -31 22 0 17 -5 26 -16 26 -12 0 -14 -7 -9 -29z"/>
<path d="M1700 1336 l0 -76 63 31 c34 17 63 32 65 34 2 2 -19 17 -100 69 l-28
18 0 -76z m90 -7 c0 -6 -71 -42 -75 -37 -1 2 0 22 3 44 l4 42 34 -22 c18 -11
33 -24 34 -27z"/>
<path d="M1902 1368 c-18 -18 -14 -56 7 -68 29 -15 39 -13 56 14 13 19 14 29
5 45 -12 23 -49 28 -68 9z m54 -19 c3 -6 0 -18 -9 -26 -18 -18 -37 -9 -37 18
0 21 34 27 46 8z"/>
<path d="M1276 1304 c-20 -20 -20 -27 3 -55 16 -21 22 -22 45 -11 17 8 26 19
26 35 0 44 -43 62 -74 31z m51 -20 c3 -8 1 -20 -5 -26 -15 -15 -43 8 -35 28 7
19 32 18 40 -2z"/>
<path d="M1435 1161 c-112 -29 -191 -113 -216 -229 -9 -45 -12 -49 -34 -44
-35 6 -73 -5 -84 -26 -5 -9 -12 -65 -16 -124 l-7 -108 33 1 c32 0 33 1 11 11
-22 11 -23 14 -16 107 4 53 9 99 11 104 2 4 23 7 46 7 56 0 65 8 75 61 18 93
79 171 161 207 55 23 156 20 213 -7 76 -37 147 -134 148 -203 0 -39 26 -60 71
-57 21 2 41 0 44 -3 8 -7 73 -710 68 -720 -2 -5 -204 -8 -449 -8 l-445 0 5 43
c3 23 8 68 11 100 6 48 9 57 26 57 11 0 17 5 14 10 -3 6 -20 10 -36 10 -17 0
-28 -4 -25 -9 3 -5 1 -55 -5 -112 -8 -82 -7 -104 3 -110 7 -5 214 -9 459 -9
345 0 449 3 457 13 14 16 -51 732 -68 753 -8 9 -31 14 -61 14 -49 0 -49 0 -49
33 0 45 -44 130 -88 168 -68 60 -179 91 -257 70z"/>
<path d="M600 1090 c0 -27 -3 -30 -30 -30 -16 0 -30 -4 -30 -10 0 -5 14 -10
30 -10 27 0 30 -3 30 -30 0 -16 5 -30 10 -30 6 0 10 14 10 30 0 27 3 30 30 30
17 0 30 5 30 10 0 6 -13 10 -30 10 -27 0 -30 3 -30 30 0 17 -4 30 -10 30 -5 0
-10 -13 -10 -30z"/>
<path d="M1422 1051 c-62 -21 -112 -66 -138 -123 -29 -65 -18 -68 217 -68 166
0 200 2 213 16 21 21 21 23 -13 77 -35 54 -88 92 -151 106 -60 14 -66 13 -128
-8z m180 -32 c38 -19 93 -79 101 -110 5 -18 -4 -19 -194 -19 -109 0 -202 0
-206 -1 -34 -3 33 94 86 125 65 38 144 39 213 5z"/>
<path d="M878 1010 l-66 -5 36 -62 c21 -35 39 -63 42 -63 7 1 64 130 59 133
-2 1 -34 0 -71 -3z m34 -50 c-10 -22 -20 -40 -24 -40 -3 0 -15 15 -26 34 -23
38 -22 38 39 43 l27 2 -16 -39z"/>
<path d="M2289 951 c-12 -35 -10 -34 -43 -21 -20 7 -26 6 -26 -4 0 -8 12 -17
26 -20 20 -5 24 -11 18 -29 -10 -35 -10 -39 4 -44 7 -3 12 3 12 14 0 34 14 45
43 34 22 -9 27 -8 27 4 0 8 -6 15 -12 15 -29 1 -39 16 -29 43 7 17 7 28 0 32
-5 4 -14 -7 -20 -24z"/>
<path d="M430 790 c-26 -26 -25 -51 1 -84 38 -48 109 -23 109 38 0 60 -68 88
-110 46z m78 -12 c17 -17 15 -53 -3 -68 -20 -17 -62 -5 -70 20 -14 44 41 80
73 48z"/>
<path d="M1159 616 c8 -10 24 -22 35 -28 20 -11 20 -10 5 13 -9 13 -25 26 -35
28 -16 3 -17 1 -5 -13z"/>
<path d="M965 583 c-16 -37 -14 -45 6 -27 20 18 26 44 10 44 -5 0 -12 -8 -16
-17z"/>
<path d="M1217 564 c-4 -4 0 -18 8 -30 9 -15 13 -34 9 -53 -4 -21 -3 -31 5
-31 8 0 11 16 10 46 -3 46 -19 81 -32 68z"/>
<path d="M1070 540 c-26 -26 -27 -90 -2 -113 23 -21 36 -21 56 -1 32 32 13
134 -25 134 -5 0 -18 -9 -29 -20z m50 -30 c10 -38 -3 -75 -26 -75 -15 0 -20 8
-22 39 -2 21 -1 45 2 53 9 22 39 11 46 -17z"/>
<path d="M937 516 c-4 -9 -3 -26 2 -38 8 -21 8 -21 15 7 8 30 -7 57 -17 31z"/>
<path d="M1361 480 c-19 -11 -9 -45 14 -45 13 0 21 8 23 21 3 23 -17 37 -37
24z"/>
<path d="M1641 476 c-15 -18 -3 -46 20 -46 25 0 35 26 19 45 -15 19 -24 19
-39 1z"/>
<path d="M940 442 c0 -19 65 -91 83 -92 16 0 5 17 -22 33 -16 10 -31 27 -33
39 -3 21 -28 39 -28 20z"/>
<path d="M197 429 c-23 -13 -21 -36 4 -49 23 -13 49 1 49 26 0 20 -32 34 -53
23z"/>
<path d="M340 405 c0 -34 32 -38 286 -33 221 4 241 8 227 45 -4 10 -56 13
-259 13 l-254 0 0 -25z"/>
<path d="M2154 415 c-4 -8 -4 -22 0 -30 5 -13 40 -15 258 -13 l253 3 0 25 0
25 -253 3 c-218 2 -253 0 -258 -13z"/>
<path d="M2764 416 c-10 -26 4 -48 28 -44 17 2 23 10 23 28 0 18 -6 26 -23 28
-13 2 -25 -3 -28 -12z"/>
<path d="M12 398 c3 -20 9 -23 43 -23 33 0 40 3 40 20 0 16 -8 21 -43 23 -40
3 -43 2 -40 -20z"/>
<path d="M1203 400 c-3 -12 -21 -27 -40 -35 -19 -8 -32 -19 -28 -25 8 -12 30
-1 68 35 28 27 35 45 16 45 -6 0 -13 -9 -16 -20z"/>
<path d="M2923 413 c-7 -2 -13 -13 -13 -24 0 -15 7 -19 39 -19 44 0 59 13 41
35 -12 15 -43 18 -67 8z"/>
<path d="M1464 351 c-31 -14 -39 -31 -21 -48 11 -12 19 -12 35 -4 28 15 62 14
96 -4 15 -8 35 -15 42 -15 24 0 16 39 -12 56 -29 20 -109 28 -140 15z"/>
<path d="M316 269 c-17 -13 -26 -30 -26 -49 0 -29 38 -70 65 -70 27 0 65 41
65 70 0 29 -38 70 -65 70 -7 0 -24 -9 -39 -21z m79 -49 c0 -12 -9 -29 -20 -36
-18 -12 -24 -11 -43 2 -28 19 -28 49 0 68 19 13 25 14 43 2 11 -7 20 -24 20
-36z"/>
<path d="M605 246 c-16 -12 -17 -16 -6 -30 17 -20 65 -21 81 -1 28 34 -35 61
-75 31z"/>
<path d="M762 251 c-8 -5 -12 -17 -10 -27 3 -17 15 -19 124 -22 99 -2 123 0
134 13 10 12 10 18 0 30 -10 12 -37 15 -124 15 -61 0 -117 -4 -124 -9z"/>
<path d="M1997 244 c-4 -4 -7 -16 -7 -26 0 -17 9 -18 133 -16 124 3 132 4 132
23 0 19 -8 20 -126 23 -69 1 -128 -1 -132 -4z"/>
<path d="M2327 244 c-4 -4 -7 -16 -7 -26 0 -15 8 -18 46 -18 41 0 45 2 42 23
-2 17 -10 23 -38 25 -20 2 -39 0 -43 -4z"/>
<path d="M245 40 c-11 -18 10 -32 41 -28 40 4 38 32 -3 36 -17 2 -34 -2 -38
-8z"/>
<path d="M425 40 c-15 -24 12 -30 131 -30 117 0 124 1 124 20 0 19 -7 20 -124
20 -73 0 -127 -4 -131 -10z"/>
<path d="M2331 41 c-8 -5 -11 -16 -7 -26 5 -13 13 -16 34 -11 25 7 132 8 192
3 19 -2 25 3 25 18 0 19 -8 20 -115 23 -63 1 -121 -2 -129 -7z"/>
<path d="M2694 35 c-9 -22 9 -37 37 -33 16 2 24 10 24 23 0 26 -52 35 -61 10z"/>
</g>
</svg>
